  0
SECTION
  2
HEADER
  0
ENDSEC
  0
SECTION
  2
TABLES
  0
TABLE
  2
VPORT
 70
 1
  0
VPORT
 2
*ACTIVE
 70
	0			
 10			
0.0			
 20			
0.0			
 11			
1.0			
 21			
1.0
 12
322.500000
 22
200.000000
 13			
0.0			
 23			
0.0			
 14			
1.0			
 24			
1.0			
 15			
0.0			
 25			
0.0			
 16			
0.0			
 26			
0.0			
 36			
1.0			
 17			
0.0			
 27			
0.0			
 37			
0.0
 40			
729.000000			
 41			
1.7416356877323409			
 42			
50.0			
 43			
0.0			
 44			
0.0
 50			
0.0			
 51			
0.0			
 71			
	 0			
 72			
   100			
 73			
	 1			
 74			
	 3			
 75			
	 0			
 76			
	 0			
 77			
	 0			
 78			
	 0
  0
ENDTAB
  0
ENDSEC
  0
SECTION
  2
ENTITIES
  0
POLYLINE
  8
PANEL12K00
  66
1
  10
0.000000000000
  20
0.000000000000
  30
0.000000000000
  62
0
  70
1
  0
VERTEX
  8
PANEL12K00
  10
0.000000000000
  20
0.000000000000
  30
0.000000000000
  0
VERTEX
  8
PANEL12K00
  10
645.000000000000
  20
0.000000000000
  30
0.000000000000
  0
VERTEX
  8
PANEL12K00
  10
645.000000000000
  20
400.000000000000
  30
0.000000000000
  0
VERTEX
  8
PANEL12K00
  10
0.000000000000
  20
400.000000000000
  30
0.000000000000
  0
SEQEND
  8
PANEL12K00
  0
POLYLINE
  8
FACE1
  66
1
  10
0.000000000000
  20
0.000000000000
  30
0.000000000000
  62
0
  70
1
  0
VERTEX
  8
FACE1
  10
-30.000000000000
  20
0.000000000000
  30
0.000000000000
  0
VERTEX
  8
FACE1
  10
-42.000000000000
  20
0.000000000000
  30
0.000000000000
  0
VERTEX
  8
FACE1
  10
-42.000000000000
  20
400.000000000000
  30
0.000000000000
  0
VERTEX
  8
FACE1
  10
-30.000000000000
  20
400.000000000000
  30
0.000000000000
  0
SEQEND
  8
FACE1
  0
POLYLINE
  8
FACE2
  66
1
  10
0.000000000000
  20
0.000000000000
  30
0.000000000000
  62
0
  70
1
  0
VERTEX
  8
FACE2
  10
0.000000000000
  20
-30.000000000000
  30
0.000000000000
  0
VERTEX
  8
FACE2
  10
0.000000000000
  20
-42.000000000000
  30
0.000000000000
  0
VERTEX
  8
FACE2
  10
645.000000000000
  20
-42.000000000000
  30
0.000000000000
  0
VERTEX
  8
FACE2
  10
645.000000000000
  20
-30.000000000000
  30
0.000000000000
  0
SEQEND
  8
FACE2
  0
POLYLINE
  8
FACE3
  66
1
  10
0.000000000000
  20
0.000000000000
  30
0.000000000000
  62
0
  70
1
  0
VERTEX
  8
FACE3
  10
675.000000000000
  20
0.000000000000
  30
0.000000000000
  0
VERTEX
  8
FACE3
  10
687.000000000000
  20
0.000000000000
  30
0.000000000000
  0
VERTEX
  8
FACE3
  10
687.000000000000
  20
400.000000000000
  30
0.000000000000
  0
VERTEX
  8
FACE3
  10
675.000000000000
  20
400.000000000000
  30
0.000000000000
  0
SEQEND
  8
FACE3
  0
POLYLINE
  8
FACE4
  66
1
  10
0.000000000000
  20
0.000000000000
  30
0.000000000000
  62
0
  70
1
  0
VERTEX
  8
FACE4
  10
0.000000000000
  20
430.000000000000
  30
0.000000000000
  0
VERTEX
  8
FACE4
  10
0.000000000000
  20
442.000000000000
  30
0.000000000000
  0
VERTEX
  8
FACE4
  10
645.000000000000
  20
442.000000000000
  30
0.000000000000
  0
VERTEX
  8
FACE4
  10
645.000000000000
  20
430.000000000000
  30
0.000000000000
  0
SEQEND
  8
FACE4
  0
POLYLINE
  8
LATOA
  66
1
  10
0.000000000000
  20
0.000000000000
  30
0.000000000000
  62
0
  70
1
  0
VERTEX
  8
LATOA
  10
0.000000000000
  20
365.000000000000
  30
6.000000000000
  0
VERTEX
  8
LATOA
  10
22.000000000000
  20
365.000000000000
  30
6.000000000000
  0
VERTEX
  8
LATOA
  10
22.000000000000
  20
371.000000000000
  30
6.000000000000
  0
VERTEX
  8
LATOA
  10
0.000000000000
  20
371.000000000000
  30
6.000000000000
  0
SEQEND
  8
LATOA
  0
CIRCLE
  8
FACE1
  10
-36.000000000000
  20
368.000000000000
  30
0.000000000000
  40
3.000000000000
  62
0
  0
POLYLINE
  8
LATOA
  66
1
  10
0.000000000000
  20
0.000000000000
  30
0.000000000000
  62
0
  70
1
  0
VERTEX
  8
LATOA
  10
0.000000000000
  20
332.000000000000
  30
6.000000000000
  0
VERTEX
  8
LATOA
  10
22.000000000000
  20
332.000000000000
  30
6.000000000000
  0
VERTEX
  8
LATOA
  10
22.000000000000
  20
340.000000000000
  30
6.000000000000
  0
VERTEX
  8
LATOA
  10
0.000000000000
  20
340.000000000000
  30
6.000000000000
  0
SEQEND
  8
LATOA
  0
CIRCLE
  8
FACE1
  10
-36.000000000000
  20
336.000000000000
  30
0.000000000000
  40
4.000000000000
  62
0
  0
POLYLINE
  8
LATOA
  66
1
  10
0.000000000000
  20
0.000000000000
  30
0.000000000000
  62
0
  70
1
  0
VERTEX
  8
LATOA
  10
0.000000000000
  20
44.000000000000
  30
6.000000000000
  0
VERTEX
  8
LATOA
  10
22.000000000000
  20
44.000000000000
  30
6.000000000000
  0
VERTEX
  8
LATOA
  10
22.000000000000
  20
52.000000000000
  30
6.000000000000
  0
VERTEX
  8
LATOA
  10
0.000000000000
  20
52.000000000000
  30
6.000000000000
  0
SEQEND
  8
LATOA
  0
CIRCLE
  8
FACE1
  10
-36.000000000000
  20
48.000000000000
  30
0.000000000000
  40
4.000000000000
  62
0
  0
POLYLINE
  8
LATOA
  66
1
  10
0.000000000000
  20
0.000000000000
  30
0.000000000000
  62
0
  70
1
  0
VERTEX
  8
LATOA
  10
0.000000000000
  20
13.000000000000
  30
6.000000000000
  0
VERTEX
  8
LATOA
  10
22.000000000000
  20
13.000000000000
  30
6.000000000000
  0
VERTEX
  8
LATOA
  10
22.000000000000
  20
19.000000000000
  30
6.000000000000
  0
VERTEX
  8
LATOA
  10
0.000000000000
  20
19.000000000000
  30
6.000000000000
  0
SEQEND
  8
LATOA
  0
CIRCLE
  8
FACE1
  10
-36.000000000000
  20
16.000000000000
  30
0.000000000000
  40
3.000000000000
  62
0
  0
CIRCLE
  8
VERTICA9K00
  10
26.000000000000
  20
336.000000000000
  30
0.000000000000
  40
6.000000000000
  62
0
  0
CIRCLE
  8
VERTICA9K00
  10
26.000000000000
  20
48.000000000000
  30
0.000000000000
  40
6.000000000000
  62
0
  0
CIRCLE
  8
VERTICA5K00
  10
62.000000000000
  20
37.000000000000
  30
0.000000000000
  40
2.500000000000
  62
0
  0
CIRCLE
  8
LATOE9K00
  10
62.000000000000
  20
37.000000000000
  30
0.000000000000
  40
2.500000000000
  62
0
  0
CIRCLE
  8
VERTICA5K00
  10
94.000000000000
  20
37.000000000000
  30
0.000000000000
  40
2.500000000000
  62
0
  0
CIRCLE
  8
LATOE9K00
  10
94.000000000000
  20
37.000000000000
  30
0.000000000000
  40
2.500000000000
  62
0
  0
CIRCLE
  8
VERTICA9K00
  10
322.500000000000
  20
368.000000000000
  30
0.000000000000
  40
4.000000000000
  62
0
  0
CIRCLE
  8
VERTICA9K00
  10
322.500000000000
  20
144.000000000000
  30
0.000000000000
  40
4.000000000000
  62
0
  0
CIRCLE
  8
VERTICA5K00
  10
568.000000000000
  20
37.000000000000
  30
0.000000000000
  40
2.500000000000
  62
0
  0
CIRCLE
  8
LATOE9K00
  10
568.000000000000
  20
37.000000000000
  30
0.000000000000
  40
2.500000000000
  62
0
  0
CIRCLE
  8
VERTICA5K00
  10
600.000000000000
  20
37.000000000000
  30
0.000000000000
  40
2.500000000000
  62
0
  0
CIRCLE
  8
LATOE9K00
  10
600.000000000000
  20
37.000000000000
  30
0.000000000000
  40
2.500000000000
  62
0
  0
POLYLINE
  8
LATOC
  66
1
  10
0.000000000000
  20
0.000000000000
  30
0.000000000000
  62
0
  70
1
  0
VERTEX
  8
LATOC
  10
645.000000000000
  20
371.000000000000
  30
6.000000000000
  0
VERTEX
  8
LATOC
  10
623.000000000000
  20
371.000000000000
  30
6.000000000000
  0
VERTEX
  8
LATOC
  10
623.000000000000
  20
365.000000000000
  30
6.000000000000
  0
VERTEX
  8
LATOC
  10
645.000000000000
  20
365.000000000000
  30
6.000000000000
  0
SEQEND
  8
LATOC
  0
CIRCLE
  8
FACE3
  10
681.000000000000
  20
368.000000000000
  30
0.000000000000
  40
3.000000000000
  62
0
  0
POLYLINE
  8
LATOC
  66
1
  10
0.000000000000
  20
0.000000000000
  30
0.000000000000
  62
0
  70
1
  0
VERTEX
  8
LATOC
  10
645.000000000000
  20
337.750000000000
  30
6.000000000000
  0
VERTEX
  8
LATOC
  10
623.000000000000
  20
337.750000000000
  30
6.000000000000
  0
VERTEX
  8
LATOC
  10
623.000000000000
  20
334.250000000000
  30
6.000000000000
  0
VERTEX
  8
LATOC
  10
645.000000000000
  20
334.250000000000
  30
6.000000000000
  0
SEQEND
  8
LATOC
  0
CIRCLE
  8
FACE3
  10
681.000000000000
  20
336.000000000000
  30
0.000000000000
  40
1.750000000000
  62
0
  0
POLYLINE
  8
LATOC
  66
1
  10
0.000000000000
  20
0.000000000000
  30
0.000000000000
  62
0
  70
1
  0
VERTEX
  8
LATOC
  10
645.000000000000
  20
49.750000000000
  30
6.000000000000
  0
VERTEX
  8
LATOC
  10
623.000000000000
  20
49.750000000000
  30
6.000000000000
  0
VERTEX
  8
LATOC
  10
623.000000000000
  20
46.250000000000
  30
6.000000000000
  0
VERTEX
  8
LATOC
  10
645.000000000000
  20
46.250000000000
  30
6.000000000000
  0
SEQEND
  8
LATOC
  0
CIRCLE
  8
FACE3
  10
681.000000000000
  20
48.000000000000
  30
0.000000000000
  40
1.750000000000
  62
0
  0
POLYLINE
  8
LATOC
  66
1
  10
0.000000000000
  20
0.000000000000
  30
0.000000000000
  62
0
  70
1
  0
VERTEX
  8
LATOC
  10
645.000000000000
  20
19.000000000000
  30
6.000000000000
  0
VERTEX
  8
LATOC
  10
623.000000000000
  20
19.000000000000
  30
6.000000000000
  0
VERTEX
  8
LATOC
  10
623.000000000000
  20
13.000000000000
  30
6.000000000000
  0
VERTEX
  8
LATOC
  10
645.000000000000
  20
13.000000000000
  30
6.000000000000
  0
SEQEND
  8
LATOC
  0
CIRCLE
  8
FACE3
  10
681.000000000000
  20
16.000000000000
  30
0.000000000000
  40
3.000000000000
  62
0
  0
ENDSEC
  0
EOF